<mxfile host="app.diagrams.net" modified="2023-03-30T16:39:20.821Z" agent="Mozilla/5.0 (Windows NT 10.0; Win64; x64) AppleWebKit/537.36 (KHTML, like Gecko) Chrome/111.0.0.0 Safari/537.36" etag="PIykGCyY7nnR-XoMfxVn" version="21.1.2" type="device">
  <diagram id="C5RBs43oDa-KdzZeNtuy" name="Page-1">
    <mxGraphModel dx="2074" dy="1182" grid="1" gridSize="10" guides="1" tooltips="1" connect="1" arrows="1" fold="1" page="1" pageScale="1" pageWidth="827" pageHeight="1169" math="0" shadow="0">
      <root>
        <mxCell id="WIyWlLk6GJQsqaUBKTNV-0" />
        <mxCell id="WIyWlLk6GJQsqaUBKTNV-1" parent="WIyWlLk6GJQsqaUBKTNV-0" />
        <mxCell id="Cf77BrGj0L_v4ruJGhLk-4" value="" style="html=1;aspect=fixed;" vertex="1" parent="WIyWlLk6GJQsqaUBKTNV-1">
          <mxGeometry x="370" y="370" width="262.5" height="262.5" as="geometry" />
        </mxCell>
        <mxCell id="Cf77BrGj0L_v4ruJGhLk-14" value="Inventory();&lt;br&gt;store in an array list" style="text;strokeColor=none;align=center;fillColor=none;html=1;verticalAlign=middle;whiteSpace=wrap;rounded=0;" vertex="1" parent="WIyWlLk6GJQsqaUBKTNV-1">
          <mxGeometry x="435.63" y="380" width="136.75" height="20" as="geometry" />
        </mxCell>
        <mxCell id="Cf77BrGj0L_v4ruJGhLk-138" value="" style="edgeStyle=orthogonalEdgeStyle;rounded=0;orthogonalLoop=1;jettySize=auto;html=1;exitX=0.5;exitY=1;exitDx=0;exitDy=0;entryX=0.5;entryY=0;entryDx=0;entryDy=0;" edge="1" parent="WIyWlLk6GJQsqaUBKTNV-1" source="Cf77BrGj0L_v4ruJGhLk-137" target="Cf77BrGj0L_v4ruJGhLk-135">
          <mxGeometry relative="1" as="geometry">
            <mxPoint x="886.5" y="310" as="targetPoint" />
          </mxGeometry>
        </mxCell>
        <mxCell id="Cf77BrGj0L_v4ruJGhLk-148" value="" style="edgeStyle=orthogonalEdgeStyle;rounded=0;orthogonalLoop=1;jettySize=auto;html=1;" edge="1" parent="WIyWlLk6GJQsqaUBKTNV-1" source="Cf77BrGj0L_v4ruJGhLk-135" target="Cf77BrGj0L_v4ruJGhLk-4">
          <mxGeometry relative="1" as="geometry" />
        </mxCell>
        <mxCell id="Cf77BrGj0L_v4ruJGhLk-135" value="Select Item&lt;br&gt;purchaseMenu()" style="whiteSpace=wrap;html=1;" vertex="1" parent="WIyWlLk6GJQsqaUBKTNV-1">
          <mxGeometry x="770" y="355" width="120" height="60" as="geometry" />
        </mxCell>
        <mxCell id="Cf77BrGj0L_v4ruJGhLk-137" value="Feed Money" style="whiteSpace=wrap;html=1;" vertex="1" parent="WIyWlLk6GJQsqaUBKTNV-1">
          <mxGeometry x="770" y="215" width="120" height="60" as="geometry" />
        </mxCell>
        <mxCell id="Cf77BrGj0L_v4ruJGhLk-141" value="" style="html=1;aspect=fixed;" vertex="1" parent="WIyWlLk6GJQsqaUBKTNV-1">
          <mxGeometry x="1350" y="50" width="250" height="250" as="geometry" />
        </mxCell>
        <mxCell id="Cf77BrGj0L_v4ruJGhLk-143" value="(superclass) Money" style="text;strokeColor=none;align=center;fillColor=none;html=1;verticalAlign=middle;whiteSpace=wrap;rounded=0;" vertex="1" parent="WIyWlLk6GJQsqaUBKTNV-1">
          <mxGeometry x="1368.75" y="50" width="212.5" height="30" as="geometry" />
        </mxCell>
        <mxCell id="Cf77BrGj0L_v4ruJGhLk-144" value="&lt;font style=&quot;font-size: 15px;&quot;&gt;costPerItem()&lt;br&gt;itemDiscount()&lt;br&gt;moneyReturned()&lt;br&gt;moneyInserted()&lt;br&gt;updateBalance()&lt;br&gt;&lt;/font&gt;" style="text;strokeColor=none;align=center;fillColor=none;html=1;verticalAlign=middle;whiteSpace=wrap;rounded=0;" vertex="1" parent="WIyWlLk6GJQsqaUBKTNV-1">
          <mxGeometry x="1390" y="70" width="175" height="160" as="geometry" />
        </mxCell>
        <mxCell id="Cf77BrGj0L_v4ruJGhLk-151" value="-Munchies&lt;br&gt;a. Chips, Pretzels&lt;br style=&quot;border-color: var(--border-color);&quot;&gt;&lt;span style=&quot;&quot;&gt;- Candy&lt;br&gt;&lt;/span&gt;a. Reeses, M&amp;amp;M&#39;s&lt;br style=&quot;border-color: var(--border-color);&quot;&gt;&lt;span style=&quot;&quot;&gt;- Drinks&lt;br&gt;&lt;/span&gt;a. Water, Coke, Sprite&lt;br style=&quot;border-color: var(--border-color);&quot;&gt;&lt;span style=&quot;&quot;&gt;- Gum&lt;br&gt;a. Big League Chew, Orbit&lt;br&gt;&lt;/span&gt;" style="text;strokeColor=none;align=center;fillColor=none;html=1;verticalAlign=middle;whiteSpace=wrap;rounded=0;" vertex="1" parent="WIyWlLk6GJQsqaUBKTNV-1">
          <mxGeometry x="406.25" y="415" width="190" height="140" as="geometry" />
        </mxCell>
        <mxCell id="Cf77BrGj0L_v4ruJGhLk-160" value="" style="endArrow=none;html=1;rounded=0;" edge="1" parent="WIyWlLk6GJQsqaUBKTNV-1">
          <mxGeometry width="50" height="50" relative="1" as="geometry">
            <mxPoint x="1350" y="80" as="sourcePoint" />
            <mxPoint x="1600" y="80" as="targetPoint" />
          </mxGeometry>
        </mxCell>
        <mxCell id="Cf77BrGj0L_v4ruJGhLk-161" value="" style="endArrow=none;html=1;rounded=0;entryX=-0.006;entryY=0.152;entryDx=0;entryDy=0;entryPerimeter=0;" edge="1" parent="WIyWlLk6GJQsqaUBKTNV-1" target="Cf77BrGj0L_v4ruJGhLk-4">
          <mxGeometry width="50" height="50" relative="1" as="geometry">
            <mxPoint x="630" y="410" as="sourcePoint" />
            <mxPoint x="940" y="550" as="targetPoint" />
          </mxGeometry>
        </mxCell>
        <mxCell id="Cf77BrGj0L_v4ruJGhLk-162" value="" style="endArrow=none;html=1;rounded=0;exitX=-0.006;exitY=0.711;exitDx=0;exitDy=0;exitPerimeter=0;entryX=1.017;entryY=0.714;entryDx=0;entryDy=0;entryPerimeter=0;" edge="1" parent="WIyWlLk6GJQsqaUBKTNV-1" source="Cf77BrGj0L_v4ruJGhLk-4" target="Cf77BrGj0L_v4ruJGhLk-4">
          <mxGeometry width="50" height="50" relative="1" as="geometry">
            <mxPoint x="890" y="600" as="sourcePoint" />
            <mxPoint x="630" y="550" as="targetPoint" />
          </mxGeometry>
        </mxCell>
        <mxCell id="Cf77BrGj0L_v4ruJGhLk-163" value="slotIdentifier()&lt;br&gt;maxStackAmount()&lt;br&gt;purchasePrice()&lt;br&gt;costPerItem()" style="text;strokeColor=none;align=center;fillColor=none;html=1;verticalAlign=middle;whiteSpace=wrap;rounded=0;" vertex="1" parent="WIyWlLk6GJQsqaUBKTNV-1">
          <mxGeometry x="474" y="580" width="60" height="30" as="geometry" />
        </mxCell>
        <mxCell id="Cf77BrGj0L_v4ruJGhLk-164" value="" style="rounded=0;whiteSpace=wrap;html=1;" vertex="1" parent="WIyWlLk6GJQsqaUBKTNV-1">
          <mxGeometry x="1187.5" y="470" width="170" height="170" as="geometry" />
        </mxCell>
        <mxCell id="Cf77BrGj0L_v4ruJGhLk-165" value="" style="endArrow=none;html=1;rounded=0;" edge="1" parent="WIyWlLk6GJQsqaUBKTNV-1">
          <mxGeometry width="50" height="50" relative="1" as="geometry">
            <mxPoint x="1362.5" y="510" as="sourcePoint" />
            <mxPoint x="1187.5" y="510" as="targetPoint" />
          </mxGeometry>
        </mxCell>
        <mxCell id="Cf77BrGj0L_v4ruJGhLk-166" value="notAvailable" style="text;strokeColor=none;align=center;fillColor=none;html=1;verticalAlign=middle;whiteSpace=wrap;rounded=0;" vertex="1" parent="WIyWlLk6GJQsqaUBKTNV-1">
          <mxGeometry x="1242.5" y="480" width="60" height="30" as="geometry" />
        </mxCell>
        <mxCell id="Cf77BrGj0L_v4ruJGhLk-167" value="if (itemNotAvailable)&lt;br&gt;&lt;br&gt;if&lt;br&gt;(!slotIdentifier)" style="text;strokeColor=none;align=center;fillColor=none;html=1;verticalAlign=middle;whiteSpace=wrap;rounded=0;" vertex="1" parent="WIyWlLk6GJQsqaUBKTNV-1">
          <mxGeometry x="1225" y="530" width="95" height="50" as="geometry" />
        </mxCell>
        <mxCell id="Cf77BrGj0L_v4ruJGhLk-168" value="" style="endArrow=classic;html=1;rounded=0;exitX=0.811;exitY=1.072;exitDx=0;exitDy=0;entryX=-0.001;entryY=0.333;entryDx=0;entryDy=0;entryPerimeter=0;exitPerimeter=0;" edge="1" parent="WIyWlLk6GJQsqaUBKTNV-1" source="Cf77BrGj0L_v4ruJGhLk-135" target="Cf77BrGj0L_v4ruJGhLk-164">
          <mxGeometry width="50" height="50" relative="1" as="geometry">
            <mxPoint x="890" y="525" as="sourcePoint" />
            <mxPoint x="940" y="530" as="targetPoint" />
            <Array as="points">
              <mxPoint x="867" y="527" />
            </Array>
          </mxGeometry>
        </mxCell>
        <mxCell id="Cf77BrGj0L_v4ruJGhLk-169" value="" style="endArrow=classic;html=1;rounded=0;exitX=0.5;exitY=0;exitDx=0;exitDy=0;entryX=1.006;entryY=0.617;entryDx=0;entryDy=0;entryPerimeter=0;" edge="1" parent="WIyWlLk6GJQsqaUBKTNV-1" source="Cf77BrGj0L_v4ruJGhLk-164" target="Cf77BrGj0L_v4ruJGhLk-135">
          <mxGeometry width="50" height="50" relative="1" as="geometry">
            <mxPoint x="890" y="580" as="sourcePoint" />
            <mxPoint x="940" y="530" as="targetPoint" />
            <Array as="points">
              <mxPoint x="1270" y="392" />
            </Array>
          </mxGeometry>
        </mxCell>
        <mxCell id="Cf77BrGj0L_v4ruJGhLk-172" value="dispenseItem()" style="swimlane;whiteSpace=wrap;html=1;startSize=23;" vertex="1" parent="WIyWlLk6GJQsqaUBKTNV-1">
          <mxGeometry x="740" y="620" width="200" height="270" as="geometry" />
        </mxCell>
        <mxCell id="Cf77BrGj0L_v4ruJGhLk-171" value="if (allMunchy)&amp;nbsp;&lt;br&gt;system print: &quot;Munchy, Munchy, so good!&quot;&lt;br&gt;&lt;br&gt;if (allCandy)&lt;br&gt;system print &quot;Sugar, sugar, so Good!&quot;&lt;br&gt;&lt;br&gt;if (allDrinks)&lt;br&gt;system print &quot;Drinky, drinky, slurp, slurp!&quot;&lt;br&gt;&lt;br&gt;if (allGum)&lt;br&gt;system print &quot;Chewy chewy lots o bubbles!&quot;" style="text;strokeColor=none;align=center;fillColor=none;html=1;verticalAlign=middle;whiteSpace=wrap;rounded=0;" vertex="1" parent="Cf77BrGj0L_v4ruJGhLk-172">
          <mxGeometry x="20" y="20" width="165" height="260" as="geometry" />
        </mxCell>
        <mxCell id="Cf77BrGj0L_v4ruJGhLk-173" value="" style="endArrow=classic;html=1;rounded=0;exitX=0.5;exitY=1;exitDx=0;exitDy=0;entryX=0.463;entryY=0;entryDx=0;entryDy=0;entryPerimeter=0;" edge="1" parent="WIyWlLk6GJQsqaUBKTNV-1" source="Cf77BrGj0L_v4ruJGhLk-177" target="Cf77BrGj0L_v4ruJGhLk-172">
          <mxGeometry width="50" height="50" relative="1" as="geometry">
            <mxPoint x="990" y="570" as="sourcePoint" />
            <mxPoint x="1040" y="520" as="targetPoint" />
          </mxGeometry>
        </mxCell>
        <mxCell id="Cf77BrGj0L_v4ruJGhLk-174" value="" style="endArrow=classic;html=1;rounded=0;exitX=0.5;exitY=1;exitDx=0;exitDy=0;" edge="1" parent="WIyWlLk6GJQsqaUBKTNV-1" source="Cf77BrGj0L_v4ruJGhLk-172" target="Cf77BrGj0L_v4ruJGhLk-181">
          <mxGeometry width="50" height="50" relative="1" as="geometry">
            <mxPoint x="870" y="970" as="sourcePoint" />
            <mxPoint x="840" y="930" as="targetPoint" />
          </mxGeometry>
        </mxCell>
        <mxCell id="Cf77BrGj0L_v4ruJGhLk-175" value="updateBalance()" style="rounded=0;whiteSpace=wrap;html=1;" vertex="1" parent="WIyWlLk6GJQsqaUBKTNV-1">
          <mxGeometry x="755" y="1169" width="170" height="60" as="geometry" />
        </mxCell>
        <mxCell id="Cf77BrGj0L_v4ruJGhLk-176" value="" style="endArrow=classic;html=1;rounded=0;exitX=0;exitY=0.5;exitDx=0;exitDy=0;entryX=0.083;entryY=0.006;entryDx=0;entryDy=0;entryPerimeter=0;" edge="1" parent="WIyWlLk6GJQsqaUBKTNV-1" source="Cf77BrGj0L_v4ruJGhLk-175" target="Cf77BrGj0L_v4ruJGhLk-135">
          <mxGeometry width="50" height="50" relative="1" as="geometry">
            <mxPoint x="990" y="610" as="sourcePoint" />
            <mxPoint x="780" y="350" as="targetPoint" />
            <Array as="points">
              <mxPoint x="320" y="960" />
              <mxPoint x="320" y="355" />
            </Array>
          </mxGeometry>
        </mxCell>
        <mxCell id="Cf77BrGj0L_v4ruJGhLk-178" value="" style="endArrow=classic;html=1;rounded=0;exitX=0.5;exitY=1;exitDx=0;exitDy=0;entryX=0.463;entryY=0;entryDx=0;entryDy=0;entryPerimeter=0;" edge="1" parent="WIyWlLk6GJQsqaUBKTNV-1" source="Cf77BrGj0L_v4ruJGhLk-135" target="Cf77BrGj0L_v4ruJGhLk-177">
          <mxGeometry width="50" height="50" relative="1" as="geometry">
            <mxPoint x="830" y="415" as="sourcePoint" />
            <mxPoint x="833" y="730" as="targetPoint" />
          </mxGeometry>
        </mxCell>
        <mxCell id="Cf77BrGj0L_v4ruJGhLk-177" value="Apply Discount&lt;br&gt;If (buyOneItem)&lt;br&gt;get (oneFreeItem)" style="rounded=0;whiteSpace=wrap;html=1;" vertex="1" parent="WIyWlLk6GJQsqaUBKTNV-1">
          <mxGeometry x="755" y="540" width="150" height="60" as="geometry" />
        </mxCell>
        <mxCell id="Cf77BrGj0L_v4ruJGhLk-181" value="recieveChange()" style="swimlane;whiteSpace=wrap;html=1;" vertex="1" parent="WIyWlLk6GJQsqaUBKTNV-1">
          <mxGeometry x="740" y="920" width="200" height="200" as="geometry" />
        </mxCell>
        <mxCell id="Cf77BrGj0L_v4ruJGhLk-182" value="&lt;span style=&quot;&quot;&gt;returns ONLY nickels, quarters, dimes, and dollars&lt;br&gt;&lt;/span&gt;" style="text;strokeColor=none;align=center;fillColor=none;html=1;verticalAlign=middle;whiteSpace=wrap;rounded=0;" vertex="1" parent="Cf77BrGj0L_v4ruJGhLk-181">
          <mxGeometry y="30" width="190" height="140" as="geometry" />
        </mxCell>
        <mxCell id="Cf77BrGj0L_v4ruJGhLk-183" value="" style="endArrow=classic;html=1;rounded=0;exitX=0.5;exitY=1;exitDx=0;exitDy=0;entryX=0.5;entryY=0;entryDx=0;entryDy=0;" edge="1" parent="WIyWlLk6GJQsqaUBKTNV-1" source="Cf77BrGj0L_v4ruJGhLk-181" target="Cf77BrGj0L_v4ruJGhLk-175">
          <mxGeometry width="50" height="50" relative="1" as="geometry">
            <mxPoint x="990" y="810" as="sourcePoint" />
            <mxPoint x="1040" y="760" as="targetPoint" />
          </mxGeometry>
        </mxCell>
        <mxCell id="Cf77BrGj0L_v4ruJGhLk-184" value="Audit&lt;br&gt;(behavior that can stand alone as an object), can&lt;br&gt;use encapsulation" style="rounded=0;whiteSpace=wrap;html=1;" vertex="1" parent="WIyWlLk6GJQsqaUBKTNV-1">
          <mxGeometry x="760" y="1270" width="160" height="80" as="geometry" />
        </mxCell>
        <mxCell id="Cf77BrGj0L_v4ruJGhLk-185" value="" style="endArrow=classic;html=1;rounded=0;exitX=0.5;exitY=1;exitDx=0;exitDy=0;" edge="1" parent="WIyWlLk6GJQsqaUBKTNV-1" source="Cf77BrGj0L_v4ruJGhLk-175" target="Cf77BrGj0L_v4ruJGhLk-184">
          <mxGeometry width="50" height="50" relative="1" as="geometry">
            <mxPoint x="990" y="810" as="sourcePoint" />
            <mxPoint x="1040" y="760" as="targetPoint" />
          </mxGeometry>
        </mxCell>
      </root>
    </mxGraphModel>
  </diagram>
</mxfile>
